<svg width="1920" height="1080" viewBox="0 0 1920 1080" fill="none" xmlns="http://www.w3.org/2000/svg">
<g clip-path="url(#clip0_202_3252)">
<mask id="path-2-inside-1_202_3252" fill="white">
<rect width="1920" height="1080" rx="32"/>
</mask>
<rect width="1920" height="1080" rx="32" stroke="#1E293B" stroke-width="144" mask="url(#path-2-inside-1_202_3252)"/>
<rect x="172" y="172" width="1576" height="736" rx="32" fill="#1E293B"/>
<path d="M398 465V415H248V465H341.75L248 615V665H398V615H303.475L398 465Z" fill="#CBD5E1"/>
<path d="M430 465V615C430 642.613 452.387 665 480 665H530C557.613 665 580 642.613 580 615V465C580 437.387 557.613 415 530 415H480C452.387 415 430 437.387 430 465ZM530 615H480V465H530V615Z" fill="#CBD5E1"/>
<path d="M662 615V415H612V665H762V615H662Z" fill="#CBD5E1"/>
<path d="M944 465V415H794V665H844V565H919V515H844V465H944Z" fill="#CBD5E1"/>
<path d="M1126 465V415H976V465H1026V615H976V665H1126V615H1076V465H1126Z" fill="#CBD5E1"/>
<path d="M1158 415V665H1208V465H1258V665H1308V465C1308 437.387 1285.61 415 1258 415H1158Z" fill="#CBD5E1"/>
<path d="M1440 415H1390C1362.39 415 1340 437.387 1340 465V665H1390V615H1440V665H1490V465C1490 437.387 1467.61 415 1440 415ZM1440 565H1390V465H1440V565Z" fill="#CBD5E1"/>
<path d="M1672 490V415H1622V490C1622 503.813 1610.81 515 1597 515H1572V415H1522V665H1572V565H1597C1610.81 565 1622 576.187 1622 590V665H1672V590C1672 562.387 1649.61 540 1622 540C1649.61 540 1672 517.613 1672 490Z" fill="#CBD5E1"/>
<rect x="1522" y="312" width="150" height="60.8571" rx="12" stroke="#F99417" stroke-width="3"/>
<path d="M1551.48 341.383H1549.31C1549.27 341.101 1549.19 340.851 1549.06 340.632C1548.94 340.41 1548.78 340.221 1548.59 340.065C1548.4 339.91 1548.18 339.79 1547.92 339.707C1547.68 339.625 1547.41 339.583 1547.11 339.583C1546.59 339.583 1546.13 339.714 1545.74 339.976C1545.35 340.234 1545.04 340.612 1544.83 341.109C1544.61 341.603 1544.5 342.203 1544.5 342.909C1544.5 343.635 1544.61 344.245 1544.83 344.739C1545.05 345.232 1545.35 345.605 1545.74 345.857C1546.13 346.109 1546.59 346.235 1547.1 346.235C1547.39 346.235 1547.65 346.197 1547.9 346.121C1548.15 346.045 1548.37 345.933 1548.56 345.788C1548.75 345.638 1548.91 345.458 1549.04 345.246C1549.17 345.034 1549.26 344.792 1549.31 344.52L1551.48 344.53C1551.43 344.997 1551.29 345.448 1551.06 345.882C1550.84 346.313 1550.54 346.699 1550.16 347.04C1549.79 347.379 1549.34 347.647 1548.82 347.846C1548.3 348.041 1547.72 348.139 1547.06 348.139C1546.16 348.139 1545.34 347.934 1544.63 347.523C1543.92 347.112 1543.35 346.517 1542.94 345.738C1542.53 344.959 1542.32 344.016 1542.32 342.909C1542.32 341.799 1542.53 340.854 1542.95 340.075C1543.37 339.296 1543.93 338.703 1544.65 338.295C1545.36 337.884 1546.17 337.679 1547.06 337.679C1547.65 337.679 1548.2 337.762 1548.7 337.928C1549.21 338.093 1549.66 338.335 1550.05 338.653C1550.44 338.968 1550.76 339.354 1551.01 339.812C1551.26 340.269 1551.41 340.793 1551.48 341.383ZM1563.08 342.909C1563.08 344.019 1562.87 344.964 1562.45 345.743C1562.04 346.522 1561.46 347.117 1560.74 347.528C1560.02 347.935 1559.21 348.139 1558.32 348.139C1557.41 348.139 1556.6 347.934 1555.88 347.523C1555.16 347.112 1554.59 346.517 1554.17 345.738C1553.76 344.959 1553.55 344.016 1553.55 342.909C1553.55 341.799 1553.76 340.854 1554.17 340.075C1554.59 339.296 1555.16 338.703 1555.88 338.295C1556.6 337.884 1557.41 337.679 1558.32 337.679C1559.21 337.679 1560.02 337.884 1560.74 338.295C1561.46 338.703 1562.04 339.296 1562.45 340.075C1562.87 340.854 1563.08 341.799 1563.08 342.909ZM1560.9 342.909C1560.9 342.19 1560.79 341.583 1560.58 341.089C1560.37 340.596 1560.07 340.221 1559.68 339.966C1559.29 339.711 1558.84 339.583 1558.32 339.583C1557.8 339.583 1557.34 339.711 1556.95 339.966C1556.57 340.221 1556.26 340.596 1556.05 341.089C1555.84 341.583 1555.73 342.19 1555.73 342.909C1555.73 343.628 1555.84 344.235 1556.05 344.729C1556.26 345.223 1556.57 345.597 1556.95 345.852C1557.34 346.107 1557.8 346.235 1558.32 346.235C1558.84 346.235 1559.29 346.107 1559.68 345.852C1560.07 345.597 1560.37 345.223 1560.58 344.729C1560.79 344.235 1560.9 343.628 1560.9 342.909ZM1565.38 337.818H1568.03L1570.84 344.659H1570.96L1573.76 337.818H1576.42V348H1574.33V341.373H1574.24L1571.61 347.95H1570.19L1567.55 341.348H1567.47V348H1565.38V337.818ZM1581.04 337.818V348H1578.89V337.818H1581.04ZM1592.03 337.818V348H1590.17L1585.74 341.592H1585.67V348H1583.51V337.818H1585.4L1589.8 344.222H1589.89V337.818H1592.03ZM1601.26 341.109C1601.19 340.867 1601.09 340.654 1600.97 340.468C1600.84 340.279 1600.69 340.12 1600.5 339.991C1600.32 339.858 1600.12 339.757 1599.89 339.688C1599.66 339.618 1599.41 339.583 1599.13 339.583C1598.61 339.583 1598.15 339.712 1597.75 339.971C1597.36 340.229 1597.06 340.606 1596.84 341.099C1596.62 341.59 1596.51 342.19 1596.51 342.899C1596.51 343.608 1596.62 344.212 1596.83 344.709C1597.05 345.206 1597.36 345.585 1597.75 345.847C1598.14 346.106 1598.61 346.235 1599.15 346.235C1599.63 346.235 1600.05 346.149 1600.39 345.977C1600.74 345.801 1601.01 345.554 1601.19 345.236C1601.38 344.918 1601.47 344.541 1601.47 344.107L1601.91 344.172H1599.28V342.551H1603.54V343.834C1603.54 344.729 1603.35 345.498 1602.97 346.141C1602.6 346.78 1602.08 347.274 1601.41 347.622C1600.75 347.967 1599.99 348.139 1599.14 348.139C1598.18 348.139 1597.34 347.929 1596.62 347.508C1595.9 347.084 1595.33 346.482 1594.93 345.703C1594.53 344.921 1594.33 343.993 1594.33 342.919C1594.33 342.094 1594.45 341.358 1594.69 340.712C1594.93 340.062 1595.27 339.512 1595.7 339.061C1596.14 338.61 1596.64 338.267 1597.22 338.032C1597.79 337.797 1598.42 337.679 1599.09 337.679C1599.67 337.679 1600.21 337.763 1600.7 337.933C1601.2 338.098 1601.64 338.334 1602.03 338.638C1602.41 338.943 1602.73 339.306 1602.97 339.727C1603.22 340.145 1603.38 340.606 1603.45 341.109H1601.26ZM1615.32 340.746C1615.28 340.345 1615.11 340.034 1614.81 339.812C1614.51 339.59 1614.1 339.479 1613.58 339.479C1613.23 339.479 1612.93 339.528 1612.69 339.628C1612.45 339.724 1612.26 339.858 1612.14 340.031C1612.01 340.203 1611.95 340.398 1611.95 340.617C1611.94 340.799 1611.98 340.959 1612.06 341.094C1612.15 341.23 1612.26 341.348 1612.41 341.447C1612.56 341.544 1612.74 341.628 1612.93 341.701C1613.13 341.771 1613.34 341.83 1613.56 341.88L1614.47 342.099C1614.92 342.198 1615.32 342.331 1615.69 342.496C1616.07 342.662 1616.39 342.866 1616.66 343.108C1616.93 343.35 1617.14 343.635 1617.29 343.963C1617.44 344.291 1617.52 344.667 1617.52 345.092C1617.52 345.715 1617.36 346.255 1617.05 346.712C1616.74 347.166 1616.28 347.519 1615.69 347.771C1615.11 348.02 1614.4 348.144 1613.57 348.144C1612.75 348.144 1612.03 348.018 1611.42 347.766C1610.82 347.514 1610.34 347.142 1610 346.648C1609.66 346.151 1609.49 345.536 1609.47 344.803H1611.55C1611.58 345.145 1611.67 345.43 1611.85 345.658C1612.02 345.884 1612.26 346.054 1612.55 346.17C1612.84 346.283 1613.18 346.339 1613.55 346.339C1613.91 346.339 1614.23 346.286 1614.5 346.18C1614.77 346.074 1614.98 345.927 1615.13 345.738C1615.28 345.549 1615.35 345.332 1615.35 345.087C1615.35 344.858 1615.28 344.666 1615.15 344.51C1615.02 344.354 1614.82 344.222 1614.56 344.112C1614.31 344.003 1613.99 343.903 1613.62 343.814L1612.51 343.536C1611.65 343.327 1610.98 343 1610.48 342.556C1609.98 342.112 1609.74 341.514 1609.74 340.761C1609.74 340.145 1609.9 339.606 1610.23 339.146C1610.57 338.685 1611.02 338.325 1611.61 338.067C1612.19 337.808 1612.85 337.679 1613.6 337.679C1614.35 337.679 1615.01 337.808 1615.58 338.067C1616.14 338.325 1616.58 338.685 1616.9 339.146C1617.21 339.606 1617.38 340.14 1617.39 340.746H1615.32ZM1629.03 342.909C1629.03 344.019 1628.82 344.964 1628.4 345.743C1627.98 346.522 1627.41 347.117 1626.69 347.528C1625.97 347.935 1625.16 348.139 1624.26 348.139C1623.36 348.139 1622.54 347.934 1621.83 347.523C1621.11 347.112 1620.54 346.517 1620.12 345.738C1619.7 344.959 1619.49 344.016 1619.49 342.909C1619.49 341.799 1619.7 340.854 1620.12 340.075C1620.54 339.296 1621.11 338.703 1621.83 338.295C1622.54 337.884 1623.36 337.679 1624.26 337.679C1625.16 337.679 1625.97 337.884 1626.69 338.295C1627.41 338.703 1627.98 339.296 1628.4 340.075C1628.82 340.854 1629.03 341.799 1629.03 342.909ZM1626.85 342.909C1626.85 342.19 1626.74 341.583 1626.52 341.089C1626.31 340.596 1626.01 340.221 1625.62 339.966C1625.24 339.711 1624.78 339.583 1624.26 339.583C1623.74 339.583 1623.29 339.711 1622.9 339.966C1622.51 340.221 1622.21 340.596 1621.99 341.089C1621.78 341.583 1621.68 342.19 1621.68 342.909C1621.68 343.628 1621.78 344.235 1621.99 344.729C1622.21 345.223 1622.51 345.597 1622.9 345.852C1623.29 346.107 1623.74 346.235 1624.26 346.235C1624.78 346.235 1625.24 346.107 1625.62 345.852C1626.01 345.597 1626.31 345.223 1626.52 344.729C1626.74 344.235 1626.85 343.628 1626.85 342.909ZM1640.68 342.909C1640.68 344.019 1640.47 344.964 1640.05 345.743C1639.63 346.522 1639.06 347.117 1638.34 347.528C1637.62 347.935 1636.81 348.139 1635.91 348.139C1635.01 348.139 1634.2 347.934 1633.48 347.523C1632.76 347.112 1632.19 346.517 1631.77 345.738C1631.35 344.959 1631.14 344.016 1631.14 342.909C1631.14 341.799 1631.35 340.854 1631.77 340.075C1632.19 339.296 1632.76 338.703 1633.48 338.295C1634.2 337.884 1635.01 337.679 1635.91 337.679C1636.81 337.679 1637.62 337.884 1638.34 338.295C1639.06 338.703 1639.63 339.296 1640.05 340.075C1640.47 340.854 1640.68 341.799 1640.68 342.909ZM1638.5 342.909C1638.5 342.19 1638.39 341.583 1638.17 341.089C1637.96 340.596 1637.66 340.221 1637.27 339.966C1636.89 339.711 1636.43 339.583 1635.91 339.583C1635.39 339.583 1634.94 339.711 1634.55 339.966C1634.16 340.221 1633.86 340.596 1633.65 341.089C1633.43 341.583 1633.33 342.19 1633.33 342.909C1633.33 343.628 1633.43 344.235 1633.65 344.729C1633.86 345.223 1634.16 345.597 1634.55 345.852C1634.94 346.107 1635.39 346.235 1635.91 346.235C1636.43 346.235 1636.89 346.107 1637.27 345.852C1637.66 345.597 1637.96 345.223 1638.17 344.729C1638.39 344.235 1638.5 343.628 1638.5 342.909ZM1651.49 337.818V348H1649.63L1645.2 341.592H1645.13V348H1642.97V337.818H1644.86L1649.26 344.222H1649.35V337.818H1651.49Z" fill="#F99417"/>
</g>
<defs>
<clipPath id="clip0_202_3252">
<rect width="1920" height="1080" rx="24" fill="white"/>
</clipPath>
</defs>
</svg>
