<svg width="1920" height="1080" viewBox="0 0 1920 1080" fill="none" xmlns="http://www.w3.org/2000/svg">
<g clip-path="url(#clip0_1044_139)">
<mask id="path-1-inside-1_1044_139" fill="white">
<rect width="1920" height="1080" rx="32"/>
</mask>
<rect width="1920" height="1080" rx="32" stroke="#0F172A" stroke-width="144" mask="url(#path-1-inside-1_1044_139)"/>
<rect x="172" y="172" width="1576" height="736" rx="32" fill="#0F172A"/>
<rect width="33.875" height="33.875" transform="translate(363.875 404)" fill="#FCC98B"/>
<rect width="33.875" height="33.875" transform="translate(499.375 404)" fill="#FCC98B"/>
<rect width="33.875" height="33.875" transform="translate(330 404)" fill="#FCC98B"/>
<rect width="33.875" height="33.875" transform="translate(465.5 404)" fill="#FCC98B"/>
<rect width="33.875" height="33.875" transform="translate(330 437.875)" fill="#FCC98B"/>
<rect width="33.875" height="33.875" transform="translate(465.5 437.875)" fill="#FCC98B"/>
<rect width="33.875" height="33.875" transform="translate(363.875 437.875)" fill="#FCC98B"/>
<rect width="33.875" height="33.875" transform="translate(499.375 437.875)" fill="#FCC98B"/>
<rect width="33.875" height="33.875" transform="translate(397.75 437.875)" fill="#FCC98B"/>
<rect width="33.875" height="33.875" transform="translate(533.25 437.875)" fill="#FCC98B"/>
<rect width="33.875" height="33.875" transform="translate(330 471.75)" fill="#FCC98B"/>
<rect width="33.875" height="33.875" transform="translate(431.625 471.75)" fill="#FCC98B"/>
<rect width="33.875" height="33.875" transform="translate(363.875 471.75)" fill="#FCC98B"/>
<rect width="33.875" height="33.875" transform="translate(465.5 471.75)" fill="#FCC98B"/>
<rect width="33.875" height="33.875" transform="translate(397.75 471.75)" fill="#FCC98B"/>
<rect width="33.875" height="33.875" transform="translate(499.375 471.75)" fill="#FCC98B"/>
<rect width="33.875" height="33.875" transform="translate(533.25 471.75)" fill="#FCC98B"/>
<rect width="33.875" height="33.875" transform="translate(330 505.625)" fill="#FCC98B"/>
<rect width="33.875" height="33.875" transform="translate(431.625 505.625)" fill="#FCC98B"/>
<rect width="33.875" height="33.875" transform="translate(363.875 505.625)" fill="#FCC98B"/>
<rect width="33.875" height="33.875" transform="translate(465.5 505.625)" fill="#FCC98B"/>
<rect width="33.875" height="33.875" transform="translate(397.75 505.625)" fill="#FCC98B"/>
<rect width="33.875" height="33.875" transform="translate(499.375 505.625)" fill="#FCC98B"/>
<rect width="33.875" height="33.875" transform="translate(533.25 505.625)" fill="#FCC98B"/>
<rect width="33.875" height="33.875" transform="translate(330 539.5)" fill="#FCC98B"/>
<rect width="33.875" height="33.875" transform="translate(431.625 539.5)" fill="#FCC98B"/>
<rect width="33.875" height="33.875" transform="translate(363.875 539.5)" fill="#FCC98B"/>
<rect width="33.875" height="33.875" transform="translate(465.5 539.5)" fill="#FCC98B"/>
<rect width="33.875" height="33.875" transform="translate(397.75 539.5)" fill="#FCC98B"/>
<rect width="33.875" height="33.875" transform="translate(397.75 573.375)" fill="#F99417"/>
<rect width="33.875" height="33.875" transform="translate(465.5 573.375)" fill="#F99417"/>
<rect width="33.875" height="33.875" transform="translate(499.375 539.5)" fill="#FCC98B"/>
<rect width="33.875" height="33.875" transform="translate(533.25 539.5)" fill="#FCC98B"/>
<rect width="33.875" height="33.875" transform="translate(330 573.375)" fill="#FCC98B"/>
<rect width="33.875" height="33.875" transform="translate(499.375 573.375)" fill="#FCC98B"/>
<rect width="33.875" height="33.875" transform="translate(363.875 573.375)" fill="#FCC98B"/>
<rect width="33.875" height="33.875" transform="translate(533.25 573.375)" fill="#FCC98B"/>
<rect width="33.875" height="33.875" transform="translate(431.625 573.375)" fill="#FCC98B"/>
<rect width="33.875" height="33.875" transform="translate(431.625 607.25)" fill="#FCC98B"/>
<rect width="33.875" height="33.875" transform="translate(330 607.25)" fill="#FCC98B"/>
<rect width="33.875" height="33.875" transform="translate(499.375 607.25)" fill="#FCC98B"/>
<rect width="33.875" height="33.875" transform="translate(330 641.125)" fill="#F99417"/>
<rect width="33.875" height="33.875" transform="translate(499.375 641.125)" fill="#F99417"/>
<rect width="33.875" height="33.875" transform="translate(363.875 607.25)" fill="#FCC98B"/>
<rect width="33.875" height="33.875" transform="translate(533.25 607.25)" fill="#FCC98B"/>
<rect width="33.875" height="33.875" transform="translate(363.875 641.125)" fill="#F99417"/>
<rect width="33.875" height="33.875" transform="translate(533.25 641.125)" fill="#F99417"/>
<rect width="33.875" height="33.875" transform="translate(431.625 641.125)" fill="#F99417"/>
<g clip-path="url(#clip1_1044_139)">
<rect width="33.875" height="33.875" transform="translate(1353.03 404)" fill="#FCC98B"/>
<rect width="33.875" height="33.875" transform="translate(1386.9 404)" fill="#FCC98B"/>
<rect width="33.875" height="33.875" transform="translate(1420.78 404)" fill="#FCC98B"/>
<rect width="33.875" height="33.875" transform="translate(1454.65 404)" fill="#FCC98B"/>
<rect width="33.875" height="33.875" transform="translate(1319.15 437.875)" fill="#FCC98B"/>
<rect width="33.875" height="33.875" transform="translate(1353.03 437.875)" fill="#FCC98B"/>
<rect width="33.875" height="33.875" transform="translate(1386.9 437.875)" fill="#FCC98B"/>
<rect width="33.875" height="33.875" transform="translate(1420.78 437.875)" fill="#FCC98B"/>
<rect width="33.875" height="33.875" transform="translate(1420.78 471.75)" fill="#F99417"/>
<rect width="33.875" height="33.875" transform="translate(1488.53 437.875)" fill="#FCC98B"/>
<rect width="33.875" height="33.875" transform="translate(1454.65 437.875)" fill="#FCC98B"/>
<rect width="33.875" height="33.875" transform="translate(1522.4 437.875)" fill="#FCC98B"/>
<rect width="33.875" height="33.875" transform="translate(1488.53 404)" fill="#FCC98B"/>
<rect width="33.875" height="33.875" transform="translate(1319.15 471.75)" fill="#FCC98B"/>
<rect width="33.875" height="33.875" transform="translate(1353.03 471.75)" fill="#FCC98B"/>
<rect width="33.875" height="33.875" transform="translate(1386.9 471.75)" fill="#FCC98B"/>
<rect width="33.875" height="33.875" transform="translate(1454.65 471.75)" fill="#FCC98B"/>
<rect width="33.875" height="33.875" transform="translate(1488.53 471.75)" fill="#FCC98B"/>
<rect width="33.875" height="33.875" transform="translate(1522.4 471.75)" fill="#FCC98B"/>
<rect width="33.875" height="33.875" transform="translate(1319.15 505.625)" fill="#FCC98B"/>
<rect width="33.875" height="33.875" transform="translate(1353.03 505.625)" fill="#FCC98B"/>
<rect width="33.875" height="33.875" transform="translate(1386.9 505.625)" fill="#FCC98B"/>
<rect width="33.875" height="33.875" transform="translate(1454.65 505.625)" fill="#FCC98B"/>
<rect width="33.875" height="33.875" transform="translate(1488.53 505.625)" fill="#FCC98B"/>
<rect width="33.875" height="33.875" transform="translate(1522.4 505.625)" fill="#FCC98B"/>
<rect width="33.875" height="33.875" transform="translate(1319.15 539.5)" fill="#FCC98B"/>
<rect width="33.875" height="33.875" transform="translate(1353.03 539.5)" fill="#FCC98B"/>
<rect width="33.875" height="33.875" transform="translate(1386.9 539.5)" fill="#FCC98B"/>
<rect width="33.875" height="33.875" transform="translate(1454.65 539.5)" fill="#FCC98B"/>
<rect width="33.875" height="33.875" transform="translate(1488.53 539.5)" fill="#FCC98B"/>
<rect width="33.875" height="33.875" transform="translate(1522.4 539.5)" fill="#FCC98B"/>
<rect width="33.875" height="33.875" transform="translate(1319.15 573.375)" fill="#FCC98B"/>
<rect width="33.875" height="33.875" transform="translate(1353.03 573.375)" fill="#FCC98B"/>
<rect width="33.875" height="33.875" transform="translate(1386.9 573.375)" fill="#FCC98B"/>
<rect width="33.875" height="33.875" transform="translate(1420.78 573.375)" fill="#FCC98B"/>
<rect width="33.875" height="33.875" transform="translate(1454.65 573.375)" fill="#FCC98B"/>
<rect width="33.875" height="33.875" transform="translate(1488.53 573.375)" fill="#FCC98B"/>
<rect width="33.875" height="33.875" transform="translate(1522.4 573.375)" fill="#FCC98B"/>
<rect width="33.875" height="33.875" transform="translate(1319.15 607.25)" fill="#F99417"/>
<rect width="33.875" height="33.875" transform="translate(1353.03 607.25)" fill="#FCC98B"/>
<rect width="33.875" height="33.875" transform="translate(1386.9 607.25)" fill="#FCC98B"/>
<rect width="33.875" height="33.875" transform="translate(1420.78 607.25)" fill="#FCC98B"/>
<rect width="33.875" height="33.875" transform="translate(1454.65 607.25)" fill="#FCC98B"/>
<rect width="33.875" height="33.875" transform="translate(1488.53 607.25)" fill="#FCC98B"/>
<rect width="33.875" height="33.875" transform="translate(1522.4 607.25)" fill="#F99417"/>
<rect width="33.875" height="33.875" transform="translate(1353.03 641.125)" fill="#F99417"/>
<rect width="33.875" height="33.875" transform="translate(1386.9 641.125)" fill="#F99417"/>
<rect width="33.875" height="33.875" transform="translate(1420.78 641.125)" fill="#F99417"/>
<rect width="33.875" height="33.875" transform="translate(1454.65 641.125)" fill="#F99417"/>
<rect width="33.875" height="33.875" transform="translate(1488.53 641.125)" fill="#F99417"/>
</g>
<g clip-path="url(#clip2_1044_139)">
<rect width="33.875" height="33.875" transform="translate(858.45 437.875)" fill="#FCC98B"/>
<rect width="33.875" height="33.875" transform="translate(892.325 437.875)" fill="#FCC98B"/>
<rect width="33.875" height="33.875" transform="translate(960.075 437.875)" fill="#FCC98B"/>
<rect width="33.875" height="33.875" transform="translate(993.95 437.875)" fill="#FCC98B"/>
<rect width="33.875" height="33.875" transform="translate(824.575 471.75)" fill="#FCC98B"/>
<rect width="33.875" height="33.875" transform="translate(858.45 471.75)" fill="#FCC98B"/>
<rect width="33.875" height="33.875" transform="translate(892.325 471.75)" fill="#FCC98B"/>
<rect width="33.875" height="33.875" transform="translate(926.2 471.75)" fill="#FCC98B"/>
<rect width="33.875" height="33.875" transform="translate(960.075 471.75)" fill="#FCC98B"/>
<rect width="33.875" height="33.875" transform="translate(993.95 471.75)" fill="#FCC98B"/>
<rect width="33.875" height="33.875" transform="translate(1027.83 471.75)" fill="#FCC98B"/>
<rect width="33.875" height="33.875" transform="translate(824.575 505.625)" fill="#FCC98B"/>
<rect width="33.875" height="33.875" transform="translate(858.45 505.625)" fill="#FCC98B"/>
<rect width="33.875" height="33.875" transform="translate(892.325 505.625)" fill="#FCC98B"/>
<rect width="33.875" height="33.875" transform="translate(926.2 505.625)" fill="#FCC98B"/>
<rect width="33.875" height="33.875" transform="translate(960.075 505.625)" fill="#FCC98B"/>
<rect width="33.875" height="33.875" transform="translate(993.95 505.625)" fill="#FCC98B"/>
<rect width="33.875" height="33.875" transform="translate(1027.83 505.625)" fill="#FCC98B"/>
<rect width="33.875" height="33.875" transform="translate(824.575 539.5)" fill="#FCC98B"/>
<rect width="33.875" height="33.875" transform="translate(858.45 539.5)" fill="#FCC98B"/>
<rect width="33.875" height="33.875" transform="translate(892.325 539.5)" fill="#FCC98B"/>
<rect width="33.875" height="33.875" transform="translate(926.2 539.5)" fill="#FCC98B"/>
<rect width="33.875" height="33.875" transform="translate(960.075 539.5)" fill="#FCC98B"/>
<rect width="33.875" height="33.875" transform="translate(993.95 539.5)" fill="#FCC98B"/>
<rect width="33.875" height="33.875" transform="translate(1027.83 539.5)" fill="#F99417"/>
<rect width="33.875" height="33.875" transform="translate(858.45 573.375)" fill="#FCC98B"/>
<rect width="33.875" height="33.875" transform="translate(892.325 573.375)" fill="#FCC98B"/>
<rect width="33.875" height="33.875" transform="translate(926.2 573.375)" fill="#FCC98B"/>
<rect width="33.875" height="33.875" transform="translate(960.075 573.375)" fill="#FCC98B"/>
<rect width="33.875" height="33.875" transform="translate(993.95 573.375)" fill="#F99417"/>
<rect width="33.875" height="33.875" transform="translate(892.325 607.25)" fill="#FCC98B"/>
<rect width="33.875" height="33.875" transform="translate(926.2 607.25)" fill="#FCC98B"/>
<rect width="33.875" height="33.875" transform="translate(960.075 607.25)" fill="#F99417"/>
<rect width="33.875" height="33.875" transform="translate(926.2 641.125)" fill="#F99417"/>
</g>
</g>
<defs>
<clipPath id="clip0_1044_139">
<rect width="1920" height="1080" fill="white"/>
</clipPath>
<clipPath id="clip1_1044_139">
<rect width="271" height="271" fill="white" transform="translate(1319.15 404)"/>
</clipPath>
<clipPath id="clip2_1044_139">
<rect width="271" height="271" fill="white" transform="translate(824.575 404)"/>
</clipPath>
</defs>
</svg>
